<?xml version="1.0" encoding="utf-8"?>
<!-- Generator: Adobe Illustrator 27.0.0, SVG Export Plug-In . SVG Version: 6.00 Build 0)  -->
<svg version="1.1" id="Layer_1" xmlns="http://www.w3.org/2000/svg" xmlns:xlink="http://www.w3.org/1999/xlink" x="0px" y="0px"
	 viewBox="0 0 440.4 166.5" style="enable-background:new 0 0 440.4 166.5;" xml:space="preserve">
<style type="text/css">
	.st0{fill:#FDEDEC;}
	.st1{fill:#010101;}
	.st2{font-family:'Raleway-Thin';}
	.st3{font-size:72px;}
</style>
<g>
	<path class="st0" d="M138.7,43.3c0.9-0.6,4.7,7.1,14,10.7c2.7,1,3.4,0.8,7.8,1.8c8.3,2,14.4,5,17.4,6.5c4.9,2.5,11.8,6.6,19.1,13.5
		c1.3-1.3,3.6-4,5.1-7.8c5.3-13.9-5.2-30.3-3.4-31.2c1.1-0.5,3.3,6.1,7.5,6.7c10.6,1.5,24.8-37.3,26.6-36.5
		c0.6,0.3-1.4,4.4-0.8,10.5c0.4,4,1.5,5.1,3.9,11.6c3.6,9.6,5.3,14.5,4.6,19.2c-0.8,4.9-3.3,7.9-1.6,10.3c1.4,1.9,4.3,1.9,4.5,1.9
		c5-0.1,8.1-6.6,8.8-6.2c0.8,0.5-2,6.8-5.6,13.5c-3.9,7.1-5.8,10.7-8.7,12.8c-3.9,2.8-7.5,3.1-7.9,5.6c-0.3,1.9,1.6,3.9,3,4.8
		c2.4,1.6,4.9,1.2,8,1c0,0,4.5-0.2,12.1,1.2c7.2,1.3,12.5,5,18.4,9.2c6.5,4.7,6.7,6.3,10.6,7.4c7.4,2.1,14.3-1.8,14.4-1.6
		c0.1,0.2-3.8,2-17,5.9c-12,3.5-17.9,5.3-21.9,5.6c-12.8,0.8-19.6-3.7-22.2-0.2c-1.6,2.1,0.5,4.6,1.6,14.4
		c0.7,5.9,1.3,11.5-0.4,12.2c-1.2,0.5-3.7-1.4-16-19.4c-10.2-14.8-11.3-19.5-14.5-19c-3.6,0.6-8.6,12-11.2,16.3
		c-3.6,5.8-5.3,8.1-12.5,18.5c-5.4,7.8-9.1,13.2-12,12.8c-1.8-0.2-3-2.8-3.8-5c3.3-2.4,7.8-6.1,12.5-11.1c3.4-3.6,5.8-7.1,10.7-14
		c12.5-17.8,11.9-19.8,11.3-20.4c-1.2-1.3-5.1,0-5.8,0.3c-2.6,0.9-4,2.4-4.8,3c-4,3.2-11.3,0.9-17.9-0.9
		c-16.8-4.6-21.8-5.1-24.8-6.6c-2.3-1.2,16.6-5.7,22.4-11.2c1-0.9,1.6-1.9,1.5-2.9c-0.3-2.1-3.8-3.2-4.9-3.6
		c-7-2.5-12.2-10.5-19.6-21.8C141.4,52.3,137.8,43.9,138.7,43.3z"/>
	<text transform="matrix(1.0427 0 0 1 8.3529 106.742)" class="st1 st2 st3">Susan David</text>
</g>
</svg>
